<?xml version="1.0" encoding="UTF-8"?>
<svg xmlns="http://www.w3.org/2000/svg" version="1.1" xmlns:xlink="http://www.w3.org/1999/xlink" viewBox="0 0 595.3 841.9">
  <defs>
    <style>
      .cls-1 {
        opacity: .3;
      }

      .cls-1, .cls-2 {
        fill: #0f366f;
      }

      .cls-3 {
        opacity: .4;
      }

      .cls-3, .cls-4, .cls-5 {
        fill: #fff;
      }

      .cls-6 {
        fill: #fe9920;
      }

      .cls-4 {
        opacity: .3;
      }

      .cls-5 {
        filter: url(#outer-glow-1);
      }
    </style>
    <filter id="outer-glow-1" x="110.1" y="370.1" width="6.2" height="6.2" filterUnits="userSpaceOnUse">
      <feOffset dx="0" dy="0"/>
      <feGaussianBlur result="blur" stdDeviation="4"/>
      <feFlood flood-color="#fff" flood-opacity="1"/>
      <feComposite in2="blur" operator="in"/>
      <feComposite in="SourceGraphic"/>
    </filter>
  </defs>
  <!-- Generator: Adobe Illustrator 28.7.1, SVG Export Plug-In . SVG Version: 1.2.0 Build 142)  -->
  <g>
    <g id="Layer_2">
      <path class="cls-2" d="M271,448.3c-.5,3.1-1.4,5.9-2.7,8.5-1.4,2.6-3.1,4.8-5.2,6.6-2.1,1.8-4.5,3.2-7.1,4.2-2.7,1-5.6,1.5-8.8,1.5h-35.2c-3.1,0-5.9-.5-8.3-1.5-2.4-1-4.4-2.4-6-4.2-1.6-1.8-2.7-4-3.4-6.6-.7-2.6-.8-5.4-.3-8.5l5.6-39.5c.5-3.2,1.4-6,2.7-8.6,1.4-2.6,3.1-4.7,5.2-6.6,2.1-1.8,4.5-3.2,7.2-4.2,2.7-1,5.6-1.5,8.7-1.5h45.8l-11.5,16.2h-25.4c-3.4,0-6.3,1.1-8.6,3.4-2.4,2.3-3.8,5.3-4.4,9.1l-3.2,23.7c-.5,3.8,0,6.8,1.7,9.1,1.7,2.3,4.2,3.4,7.6,3.4h24l2.7-18.2h-20.7l-7.1-16.2h29.9c3.2,0,6,.5,8.4,1.5,2.4,1,4.4,2.4,6,4.2,1.6,1.8,2.7,4,3.4,6.6.7,2.6.8,5.4.3,8.6l-1.3,8.9Z"/>
    </g>
    <g id="Layer_3">
      <path class="cls-2" d="M285.3,388h63.8l-2.2,16.2h-43l-2.2,16.2h39.5l-21.2,16.2h-20.5l-2.2,16.2h44l-2.2,16.2h-65l11.4-81.2Z"/>
    </g>
    <g id="Layer_4">
      <path class="cls-2" d="M363.6,388h63.8l-2.2,16.2h-43l-2.2,16.2h39.5l-21.2,16.2h-20.5l-2.2,16.2h44l-2.2,16.2h-65l11.4-81.2Z"/>
    </g>
    <g id="Layer_5">
      <path class="cls-2" d="M437.9,388h47.3c3.8,0,7,.4,9.6,1.2,2.6.8,4.8,1.9,6.5,3.2,1.7,1.3,3,2.8,3.9,4.5.9,1.7,1.6,3.4,2,5.1.4,1.7.6,3.4.5,5,0,1.6-.1,3-.3,4.2-.7,5-2.5,9.4-5.3,13.1,2.6,1.9,4.6,4.2,5.8,7,1.2,2.8,1.9,5.9,1.9,9.4s-.7,8.6-2.2,12.1c-1.5,3.5-3.5,6.5-6.1,8.9-2.6,2.4-5.8,4.3-9.5,5.6-3.7,1.3-7.8,1.9-12.3,1.9h-53.1l11.4-81.2ZM449.8,453h26.3c4.2,0,7.2-.9,9.2-2.6,1.9-1.7,3.1-3.7,3.5-5.9.2-.9.2-1.8,0-2.7-.2-1-.6-1.9-1.2-2.7-.7-.8-1.6-1.5-2.8-2-1.2-.5-2.9-.8-4.9-.8h-27.7l-2.3,16.6ZM454.3,420.1h21.6c3.5,0,6.1-.8,7.7-2.5,1.7-1.7,2.6-3.5,3-5.6.2-.9.2-1.7,0-2.6-.1-.9-.4-1.7-.9-2.5-.5-.8-1.3-1.4-2.3-1.9-1-.5-2.4-.8-4.1-.8h-22.9l-2.2,15.9Z"/>
    </g>
    <g id="Layer_6">
      <path class="cls-2" d="M125.7,389.1c-10.1,2.1-18.6-.9-25.4-8.7-4.5-5.2-6.4-11.3-6-18.2,0-1.2,0-1.1,1.3-1.1h49.1c1.4,0,1.3-.1,1.4,1.3.7,13.5-8.5,24.2-20.2,26.7Z"/>
    </g>
    <g id="Layer_7">
      <circle class="cls-1" cx="113.2" cy="373.2" r="6.8"/>
    </g>
    <g id="Layer_8">
      <circle class="cls-4" cx="113.2" cy="373.2" r="5.5"/>
    </g>
    <g id="Layer_9">
      <circle class="cls-3" cx="113.2" cy="373.2" r="4.3"/>
    </g>
    <g id="Layer_10">
      <circle class="cls-5" cx="113.2" cy="373.2" r="3.1"/>
    </g>
    <g id="Layer_11">
      <g>
        <path class="cls-6" d="M156.3,422.8c10.5,15.4,21,30.8,31.4,46.1-.2.4-.4.3-.7.3-6.7,0-13.4,0-20,0-.6,0-1-.2-1.4-.7-5.2-7.7-10.5-15.4-15.7-23.1-4.3-6.2-8.5-12.5-12.8-18.7-.3-.5-.7-.7-1.3-.7-9.9,0-19.8,0-29.8,0-1.8,0-2.4.7-2.4,2.5,0,9.9,0,19.8,0,29.8,0,3.3,0,6.6,0,9.8,0,1.1,0,1.1-1,1.1-5.4,0-10.7,0-16.1,0-1.1,0-1.1,0-1.1-1.1,0-10.6,0-21.3,0-31.9,0-2.6,0-5.3,0-7.9,0-10.1,6.9-18.5,16.8-20.4,1.6-.3,3.3-.3,4.9-.3,11.4,0,22.8,0,34.2,0,4.4,0,8.6-.8,12.6-2.6,8-3.7,13.1-9.9,15.1-18.5,1.6-7.1.3-13.7-3.9-19.6-4-5.5-9.4-8.7-16.1-9.7-1.3-.2-2.5-.2-3.8-.2-17,0-33.9,0-50.9,0-5,0-8.7-3.7-8.8-8.7,0-3.1,0-6.2,0-9.4,0-1,0-1,1-1,6.2,0,12.3,0,18.5,0,13.6,0,27.3,0,40.9,0,10.9,0,20.4,3.8,28.5,11.1,6.6,6,10.7,13.6,12.5,22.3,2,9.2,1.1,18.2-2.5,26.8-3.2,7.5-8.2,13.5-14.9,18.1-3.8,2.6-7.8,4.7-12.1,6.2-.3.1-.7.1-1,.5Z"/>
        <path class="cls-2" d="M94.8,465.8c-.7-.2-.6-.7-.6-1.2,0-2.7.1-5.5.2-8.2,0-.5.2-.8.5-1,.6-.4.6-1.2.2-1.7-.5-.5-1.4-.5-1.9,0-.5.5-.6,1.2,0,1.6.4.3.5.7.5,1.2,0,2.8-.1,5.5-.1,8.3,0,.5,0,.9-.4,1.4-.4.4-.3.9,0,1.4.3.5.8.6,1.4.4.6-.2.8-.6.9-1.2,0-.4-.2-.8-.5-.9Z"/>
        <path class="cls-2" d="M172.6,467.7c-.1.7-.9,1.3-1.6,1.2-.8-.1-1.4-1-1.1-1.8.2-.5,0-.7-.2-1-2.6-3.2-5.1-6.4-7.7-9.6-.5-.7-.8-1.3-.7-2.2.1-1.3,0-2.6.1-3.9,0-.5-.1-.8-.7-.7-1.7.4-2.5-.5-3.4-1.8-5.5-7.9-11.2-15.8-16.6-23.9-1.1-1.6-2.1-2.2-4.1-2.2-9.7,0-19.4-.1-29.1-.2-.8,0-1.5.1-2.2.5-1.9,1-3.7,1.9-5.6,2.8-.5.2-.6.5-.6,1,0,4.7-.1,9.3-.3,14,0,.6.3.8.7,1.2.7.7.7,1.6,0,2.2-.7.6-1.8.5-2.3-.3-.4-.6-.4-1.4.3-1.8.6-.4.6-.9.7-1.4,0-4.7.2-9.3.2-14,0-.6.2-1,.8-1.3,1.5-.6,2.9-1.3,4.3-2,1.4-.9,2.9-1.4,4.6-1.4,10.1.2,20.3.2,30.4.3.4,0,.9-.2,1.3.3,2.2,3.2,4.4,6.5,6.7,9.7,4,5.8,8.1,11.5,12.1,17.3.3.5,2.2.9,2.7.6.2-.1.2-.4.2-.6,0-1.4,0-2.8.2-4.2,0-.3-.1-.6-.3-.8-1.7-2.5-3.5-4.9-5.2-7.5-.4-.6-.9-.5-1.4-.5-.7,0-1.2-.2-1.6-.8-4-5.7-8-11.5-12-17.2-.3-.4-.5-.6-1-.6-10.9,0-21.8,0-32.7-.2-.9,0-1.6.1-2.4.5-2.6,1.3-5.3,2.6-8,3.8-1.9.8-2.3,2.3-2.5,4-.2,2-.1,4.1-.2,6.1-.1,4.7,0,9.4-.4,14,0,.5.2.8.5,1.2,1.6,1.6,3.1,3.1,4.7,4.6.4.2.3.6.3,1,0,4.4,0,8.7-.2,13,0,.5,0,.8.4,1.2.5.5.4,1.2,0,1.6-.6.4-1.1.5-1.6,0-.5-.4-.6-1.3,0-1.7.6-.4.6-1,.6-1.6,0-4.3.1-8.7.2-13-1.7-1.6-3.3-3.3-5-4.9-.4-.4-.6-.8-.6-1.4.2-6.2.3-12.4.5-18.6,0-1.7.2-3.4,1.1-4.9.2-.3.4-.7.8-.8,2.9-1.4,5.8-2.7,8.6-4.1,1-.6,2-.9,3.2-.9,9.6.1,19.1.2,28.6.3,1.3,0,2.7,0,4,0s.7,0,1,.2c1.4,2,2.9,4.1,4.3,6.1,2.8,3.9,5.5,7.9,8.2,11.8.4.6,1,.6,1.6.5.6,0,1.1.2,1.4.7,1.8,2.6,3.6,5.1,5.4,7.7.3.4.3.8.3,1.3-.1,3.3-.2,6.5-.3,9.8,0,.7.1,1.3.6,1.9,2.5,3.1,4.9,6.2,7.4,9.3.4.4.6.9,1.4.7.8-.1,1.4.8,1.3,1.6Z"/>
        <path class="cls-2" d="M180.4,364.7c-.5-.2-.7-.6-.7-1-.3-1.8-1.2-3.3-2.4-4.6-2.1-2.3-4.1-4.7-6-7.2-.3-.3-.6-.4-1-.4-2.1,0-4.2,0-6.3-.1-1.1,0-2-.1-2.9-1-.5-.5-1.2-.8-1.8-1.2-1-.5-1.9-1.1-2.9-1.4-.3-.1-.6-.2-.9-.3-.1-.3-.5-.3-.8-.4-3.4-1.3-6.9-1.8-10.5-1.9-8.8-.1-17.7-.2-26.5-.3-.4,0-.8,0-1.1-.3-1.3-1.8-2.7-3.4-4.2-5-.2-.4-.5-.4-.9-.4-1,0-2.1,0-3.1,0-.4,0-.7,0-1-.4-.5-.6-1.2-.6-1.7,0s-.5,1.1,0,1.6c.6.5,1.2.5,1.7,0,.2-.2.4-.5.7-.4,1.2,0,2.4,0,3.6.1,1.3,1.6,2.7,3.2,4,4.8.5.6,1,.8,1.7.8,9.1.1,18.2.2,27.3.4,6.2.1,11.8,1.9,16.7,5.7.4.3.8.4,1.3.4,2.2,0,4.4.1,6.7,0,.8,0,1.3.2,1.8.8,1.9,2.3,3.7,4.7,5.7,6.9,1.1,1.3,1.7,2.7,2.1,4.3,0,.3,0,.5-.2.8-.8.7-.8,1.8,0,2.4.6.5,1.7.3,2.2-.3.6-.7.3-1.8-.6-2.2Z"/>
        <path class="cls-2" d="M178,379.3c-.2,4.2-.3,8.4-.4,12.6,0,1-.7,1.9-1.1,2.8-2.5,5.8-5.9,11-10.7,15.1-.3.3-.3.6-.3,1,0,.9-.8,1.5-1.7,1.3-.8,0-1.3-.9-1.2-1.6.2-.9,1-1.4,1.9-1.1.5.2.7,0,1-.3,4.8-4,7.9-9.2,10.5-14.8.8-1.7,1-3.3,1-5.1s0-4.5.3-6.7c.3-3.1-.1-6.1-1.1-9-.8-2.4-1.2-4.9-1.8-7.3-.1-.6-.3-1-.7-1.4-1.7-2-3.3-3.9-5-5.9-.4,0-.9,0-1.2-.3-.4-.4-.7-.8-.4-1.4.3-.6.8-.9,1.5-.8.6.1,1.1.6.9,1.1-.4,1.1.3,1.5.8,2.1.2.2.3.4.5.6,1.3,1.5,2.6,2.9,3.8,4.4.5.6.6,1.4.7,2.2.6,3.2,1.5,6.4,2.5,9.5.3,1,.4,1.9.4,2.9Z"/>
        <path class="cls-2" d="M173.2,380.1c-.2,3.4-.3,6.8-.4,10.2,0,.6-.2,1.1-.4,1.6-2,3.7-4,7.3-6.1,11-.1.3-.3.5-.5.7-4.8,4.6-10,8.6-15.9,11.7-.4.2-.8.3-1.1.6-.8.7-1.3.4-1.9-.3-.8-1-1.6-1.9-2.4-2.9-.5-.6-1-.8-1.8-.8-8,0-16,0-24,0-4.3,0-8.5,0-12.8-.2-6.4-.2-13.1,4-15.4,10-.3.9-.9,1.9-.9,2.9s0,.3,0,.4c0,10.1-.3,20.1-.5,30.1,0,2,0,3.9-.1,5.9,0,.6,0,1.1.3,1.6v1.8c0,.6-.1,1.1.6,1.5.6.3.6,1.1,0,1.6-.4.5-1.3.6-1.8.1-.5-.4-.6-1.2-.2-1.7.7-.8.7-2.3.2-3.3,0-.2,0-.5,0-.7.2-11.9.4-23.9.7-35.9,0-1.4,0-2.9.8-4.2,1.6-4.5,4.8-7.5,9.1-9.5,1.1-.5,2.2-1,3.4-1,1.3-.6,2.7-.4,4.1-.4,2.9,0,5.7.2,8.5.1,5.7,0,11.4,0,17.1,0,3.8,0,7.6,0,11.4,0,.4,0,.8-.1,1.1.3,1.2,1.1,2.1,2.4,3.2,3.7.3.3.5.4.9.2,6.2-3.3,11.7-7.4,16.8-12.2.4-.4.6-1,.9-1.5,2.1-3.4,3.7-7.1,5.8-10.5.2-4.2.3-8.4.5-12.6,0,0-.2-.2-.3-.3-1.5-1.4-2.2-3.1-2.6-5.1-.7-3.4-2.5-6.3-4.3-9.2-2.3-3.7-4.9-7.1-8.8-9.4-3.5-2-7.2-3.3-11.3-3.4-9.9-.2-19.8-.3-29.7-.4-.7,0-1.3-.2-1.7-.8-.8-1-1.7-2-2.6-3-.3-.4-.7-.6-1.3-.6-1.4,0-2.7,0-4.1,0s-.7,0-1-.4c-1.1-1.5-2.2-2.9-3.3-4.4-.4-.5-.8-.9-1.2-1.4-.5-.6-.5-1.2,0-1.7.6-.5,1.2-.5,1.7,0,.6.5.7,1.2,0,1.7-.6.5-.2.8,0,1.1,1,1.2,1.9,2.3,2.8,3.5.4.6.9.7,1.6.7,1.3,0,2.6,0,3.9,0,.3,0,.6,0,.9.3.8,1,1.7,2,2.5,3.1.6.9,1.5,1,2.5,1,8.8,0,17.6.2,26.5.2,2.6,0,5.1.2,7.6,1,2.4.4,4.5,1.6,6.6,2.8,3.4,2,5.8,4.9,7.9,8.1,1.8,2.8,3.4,5.6,4.6,8.7.4,1,.7,2,.9,3.1.1,1.2.5,2.3,1.5,3.1,1,.9,1.3,1.9,1.2,3.2Z"/>
        <path class="cls-2" d="M178.5,467.5c-.1.7-.8,1.1-1.5,1-.7-.1-1.1-.8-.8-1.6.3-.6-.3-.7-.3-1.1-1.3-1.8-2.6-3.6-3.7-5.4-1.4-2.4-3.3-4.3-5.6-5.8-.9-.6-1.2-1.3-1.1-2.4.2-3,.2-5.9.4-8.9,0-.6-.1-1-.4-1.4-3-4.1-6-8.2-9-12.3-.3-.1-.7-.2-.9-.3-.6-.4-.8-.9-.4-1.5.4-.6.9-.9,1.6-.6.6.3,1,.9.6,1.5-.4.6.1.9.2,1.3,2,2.7,4,5.4,6,8.2.9,1.2,1.8,2.4,2.7,3.6.3.4.4.8.4,1.2-.1,3.2-.2,6.4-.3,9.6,0,.6,0,1,.6,1.3,3.9,2.4,6,6.3,8.4,9.8.5.7,1,1.5,1.4,2.2.2.2.4.3.7.4.8,0,1.3.6,1.2,1.3Z"/>
        <path class="cls-2" d="M152.9,423.4c-.4,0-.6.3-.7.7,0,.4.3.6.6.6.4,0,.7-.2.7-.7,0-.4-.3-.6-.7-.6Z"/>
        <path class="cls-2" d="M169.4,447.4c-.4,0-.7.2-.8.6,0,.3.2.5.6.6.4,0,.7,0,.8-.5,0-.4-.2-.6-.6-.6Z"/>
      </g>
    </g>
    <g id="Layer_12">
      <g>
        <path class="cls-6" d="M95,485.8c3.2,0,5.7,2.4,5.7,6.7v.4c0,3.8-2.2,6.5-6,6.5-2,0-3.5-1.2-4-2.3v6.9h-3.7v-18h3.5v2.5c.6-1.6,2.3-2.7,4.5-2.7ZM90.5,492.4v.5c0,1.9,1,3.7,3.2,3.7s3.2-1.2,3.2-3.7v-.4c0-2.3-1.2-3.9-3.1-3.9s-3.2,1.3-3.2,3.8Z"/>
        <path class="cls-6" d="M117.3,485.8h.5v3.7h-.5c-2.1,0-4.2.8-4.2,3.3v6.3h-3.8v-13.1h3.8v2.9c0-.4.7-3.1,4.2-3.1Z"/>
        <path class="cls-6" d="M139.3,492.4v.3c0,2-1,6.6-6.9,6.6s-6.9-2.6-6.9-6.6v-.4c0-3.9,2.8-6.5,6.9-6.5s6.8,2.9,6.9,6.6ZM132.4,488.5c-2.2,0-3,2-3,3.8v.4c0,2.4,1.1,3.9,3,3.9s3-1.4,3-3.9v-.4c0-2.2-1.2-3.8-3-3.8Z"/>
        <path class="cls-6" d="M151.9,488.5v6.5c0,1,.5,1.4,1.4,1.4h1.7v2.7h-2.7c-2.6,0-4-1-4-3.8v-6.8h-1.5v-2.4h1.5v-2.8h3.6v2.8h3.1v2.4h-3.1Z"/>
        <path class="cls-6" d="M163,492.7c0-4.2,2.8-6.8,6.8-6.8s7.1,3.2,6.6,7.9h-9.7c0,2,1.3,3.1,3.1,3.1s2.4-.6,2.6-1.8h3.8c-.5,3.2-3.1,4.4-6.5,4.4s-6.8-2.7-6.8-6.7ZM173,491.6c0-1.5-.8-3.1-3.1-3.1s-3,1.5-3,3.1h6.2Z"/>
        <path class="cls-6" d="M184.3,492.7v-.7c0-3,2.5-6.1,7-6.1s5.8,1.8,6.2,4.7h-3.5c-.2-1.2-1.3-2-2.5-2-2.2,0-3.1,1.9-3.2,3.7v.7c0,2.4,1.3,4,3.1,4s2.8-1,2.8-2.6h3.5c-.1,3.1-2.6,5.1-6.5,5.1s-6.7-3.2-6.7-6.7Z"/>
        <path class="cls-6" d="M209.9,488.5v6.5c0,1,.5,1.4,1.4,1.4h1.7v2.7h-2.7c-2.6,0-4-1-4-3.8v-6.8h-1.5v-2.4h1.5v-2.8h3.6v2.8h3.1v2.4h-3.1Z"/>
        <path class="cls-6" d="M223.6,480.2c1.2,0,2.1,1,2.1,2.2s-.9,2.1-2.1,2.1-2.1-1-2.1-2.1.9-2.2,2.1-2.2ZM225.4,486.1v13.1h-3.7v-13.1h3.7Z"/>
        <path class="cls-6" d="M247.9,492.4v.3c0,2-1,6.6-6.9,6.6s-6.9-2.6-6.9-6.6v-.4c0-3.9,2.8-6.5,6.9-6.5s6.8,2.9,6.9,6.6ZM241,488.5c-2.2,0-3,2-3,3.8v.4c0,2.4,1.1,3.9,3,3.9s3-1.4,3-3.9v-.4c0-2.2-1.2-3.8-3-3.8Z"/>
        <path class="cls-6" d="M269.8,490.6v8.6h-3.8v-7.7c0-1.8-1.1-2.9-2.8-2.9s-3,1.3-3,3v7.6h-3.8v-13.1h3.6v2c.9-1.6,3-2.3,4.7-2.3,3,0,5,1.8,5,4.7Z"/>
        <path class="cls-6" d="M302.4,490.7v8.4h-3.2v-1.7c-.6,1-2,2-4.7,2s-4.5-1.1-4.5-3.8,2.4-4.1,6.6-4.1h2.2v-.9c-.1-1.5-1-2.1-2.4-2.1s-2.2.8-2.4,1.8h-3.5c.2-2.9,2.6-4.5,6-4.5s6,1.6,6,4.9ZM298.7,493.6h-2.1c-1.8,0-3,.4-3,1.7s.8,1.5,2.1,1.5,2.9-.9,3-2.2v-1Z"/>
        <path class="cls-6" d="M324.6,490.6v8.6h-3.8v-7.7c0-1.8-1.1-2.9-2.8-2.9s-3,1.3-3,3v7.6h-3.8v-13.1h3.6v2c.9-1.6,3-2.3,4.7-2.3,3,0,5,1.8,5,4.7Z"/>
        <path class="cls-6" d="M338.5,499.4c-3,0-5.4-2.2-5.4-6.4v-.3c0-4.2,2.5-6.8,5.7-6.8s4,1.5,4.3,2.4v-7.1h3.7v18h-3.5v-2.4c-.6,1.4-2,2.7-4.8,2.7ZM343.2,492.9v-.3c0-1.9-1-3.7-3.1-3.7s-3.2,1.3-3.2,3.7v.3c0,2.2,1.3,3.7,3.2,3.7s3.2-1.3,3.2-3.7Z"/>
        <path class="cls-6" d="M372.1,499.4c-3.5,0-5.7-1.4-6-4h3.6c.2,1,1,1.7,2.4,1.7s2.1-.6,2.1-1.5-.7-1.2-2.8-1.5c-3.5-.4-5.1-1.3-5.1-3.9s2.6-4.2,5.6-4.2,5.3,1.2,5.7,4h-3.6c-.2-.9-.9-1.4-2.1-1.4s-2,.6-2,1.4.8,1.3,2.7,1.5c3.6.5,5.4,1.3,5.4,3.9s-2.5,4.2-6,4.2Z"/>
        <path class="cls-6" d="M386,492.7c0-4.2,2.8-6.8,6.8-6.8s7.1,3.2,6.6,7.9h-9.7c0,2,1.3,3.1,3.1,3.1s2.4-.6,2.6-1.8h3.8c-.5,3.2-3.1,4.4-6.5,4.4s-6.8-2.7-6.8-6.7ZM396,491.6c0-1.5-.8-3.1-3.1-3.1s-3,1.5-3,3.1h6.2Z"/>
        <path class="cls-6" d="M407.3,492.7v-.7c0-3,2.5-6.1,7-6.1s5.8,1.8,6.2,4.7h-3.5c-.2-1.2-1.3-2-2.5-2-2.2,0-3.1,1.9-3.2,3.7v.7c0,2.4,1.3,4,3.1,4s2.8-1,2.8-2.6h3.5c-.1,3.1-2.6,5.1-6.5,5.1s-6.7-3.2-6.7-6.7Z"/>
        <path class="cls-6" d="M428.6,494.6v-8.6h3.8v7.8c0,1.7.9,2.7,2.7,2.7s3-1.3,3-3v-7.6h3.8v13.1h-3.4v-2.4c-.7,1.9-2.8,2.6-4.7,2.6-2.9,0-5.1-1.5-5.1-4.7Z"/>
        <path class="cls-6" d="M459.3,485.8h.5v3.7h-.5c-2.1,0-4.2.8-4.2,3.3v6.3h-3.8v-13.1h3.8v2.9c0-.4.7-3.1,4.2-3.1Z"/>
        <path class="cls-6" d="M470,480.2c1.2,0,2.1,1,2.1,2.2s-.9,2.1-2.1,2.1-2.1-1-2.1-2.1.9-2.2,2.1-2.2ZM471.9,486.1v13.1h-3.7v-13.1h3.7Z"/>
        <path class="cls-6" d="M485.3,488.5v6.5c0,1,.5,1.4,1.4,1.4h1.7v2.7h-2.7c-2.6,0-4-1-4-3.8v-6.8h-1.5v-2.4h1.5v-2.8h3.6v2.8h3.1v2.4h-3.1Z"/>
        <path class="cls-6" d="M509.6,486.1l-6.8,17.3h-3.6l1.8-4.9-5.1-12.5h3.8l3.2,9,3.3-9h3.4Z"/>
      </g>
    </g>
  </g>
</svg>